# xmcd CD database file
#
# Track frame offsets:
#	150
#	20599
#	36182
#	57531
#	74555
#	92319
#	114405
#	135651
#	153107
#	167330
#	193454
#
# Disc length: 2844 seconds
#
# Revision: 0
# Processed by: cddbd v1.5.2PL0 Copyright (c) Steve Scherf et al.
# Submitted via: Feurio! 1.68 - http://www.feurio.com
#
DISCID=910b1a0b
DTITLE=Patti LaBelle - The Gospel According to Patti LaBelle
DYEAR=1900
DGENRE=
TTITLE0=Did You Pray Today
TTITLE1=Where Love Begins (Feat. Yolanda Adams)
TTITLE2=Anything (Feat. Mary Mary)
TTITLE3=Walk Around Heaven
TTITLE4=More Than (He Loves You) (Feat. J Moss)
TTITLE5=God Ain't Through (Feat. The Soul Seekers)
TTITLE6=I Just Love Him So
TTITLE7=Walking Away (Feat. CeCe Winans)
TTITLE8=My Everything (Feat. Wynonna Judd)
TTITLE9=Anything (Feat. Kanye West, Mary Mary and Consequence)
TTITLE10=You Are My Friend
EXTD=
EXTT0=
EXTT1=
EXTT2=
EXTT3=
EXTT4=
EXTT5=
EXTT6=
EXTT7=
EXTT8=
EXTT9=
EXTT10=
PLAYORDER=
